<?xml version="1.0" encoding="iso-8859-1"?>
<!-- Generator: Adobe Illustrator 16.0.0, SVG Export Plug-In . SVG Version: 6.00 Build 0)  -->
<!DOCTYPE svg PUBLIC "-//W3C//DTD SVG 1.1//EN" "http://www.w3.org/Graphics/SVG/1.1/DTD/svg11.dtd">
<svg xmlns="http://www.w3.org/2000/svg" xmlns:xlink="http://www.w3.org/1999/xlink">
	 <symbol id="path">
		<path d="M950,0h-2v8h-3V2h-1v6h-4V2h-1v6h-4V2h-1v6h-4V2h-1v6h-3V0h-2v8
			h-4V2h-1v6h-4V2h-1v6h-4V2h-1v6h-4V2h-1v6h-3V0h-2v8h-4V2h-1v6h-4V2h-1v6h-4V2h-1v6h-4V2h-1v6h-3V0h-2v8h-4V2h-1v6h-4V2h-1v6h-4V2
			h-1v6h-4V2h-1v6h-3V0h-2v8h-4V2h-1v6h-4V2h-1v6h-4V2h-1v6h-4V2h-1v6h-3V0h-2v8h-4V2h-1v6h-4V2h-1v6h-4V2h-1v6h-4V2h-1v6h-3V0h-2v8
			h-4V2h-1v6h-4V2h-1v6h-4V2h-1v6h-4V2h-1v6h-3V0h-2v8h-4V2h-1v6h-4V2h-1v6h-4V2h-1v6h-4V2h-1v6h-3V0h-2v8h-4V2h-1v6h-4V2h-1v6h-4V2
			h-1v6h-4V2h-1v6h-3V0h-2v8h-4V2h-1v6h-4V2h-1v6h-4V2h-1v6h-4V2h-1v6h-3V0h-2v8h-4V2h-1v6h-4V2h-1v6h-4V2h-1v6h-4V2h-1v6h-3V0h-2v8
			h-4V2h-1v6h-4V2h-1v6h-4V2h-1v6h-4V2h-1v6h-3V0h-2v8h-4V2h-1v6h-4V2h-1v6h-4V2h-1v6h-4V2h-1v6h-3V0h-2v8h-4V2h-1v6h-4V2h-1v6h-4V2
			h-1v6h-4V2h-1v6h-3V0h-2v8h-4V2h-1v6h-4V2h-1v6h-4V2h-1v6h-4V2h-1v6h-3V0h-2v8h-4V2h-1v6h-4V2h-1v6h-4V2h-1v6h-4V2h-1v6h-3V0h-2v8
			h-4V2h-1v6h-4V2h-1v6h-4V2h-1v6h-4V2h-1v6h-3V0h-2v8h-4V2h-1v6h-4V2h-1v6h-4V2h-1v6h-4V2h-1v6h-3V0h-2v8h-4V2h-1v6h-4V2h-1v6h-4V2
			h-1v6h-4V3h-1v5h-3V0h-2v8h-3V2h-1v6h-4V2h-1v6h-4V2h-1v6h-4V2h-1v6h-3V0h-2v8h-4V2h-1v6h-4V2h-1v6h-4V2h-1v6h-4V2h-1v6h-3V0h-2v8
			h-4V2h-1v6h-4V2h-1v6h-4V2h-1v6h-4V2h-1v6h-3V0h-2v8h-4V2h-1v6h-4V2h-1v6h-4V2h-1v6h-4V2h-1v6h-3V0h-2v8h-4V2h-1v6h-4V2h-1v6h-4V2
			h-1v6h-4V2h-1v6h-3V0h-2v8h-4V2h-1v6h-4V2h-1v6h-4V2h-1v6h-4V2h-1v6h-3V0h-2v8h-4V2h-1v6h-4V2h-1v6h-4V2h-1v6h-4V2h-1v6h-3V0h-2v8
			h-4V2h-1v6h-4V2h-1v6h-4V2h-1v6h-4V2h-1v6h-3V0h-2v8h-4V2h-1v6h-4V2h-1v6h-4V2h-1v6h-4V2h-1v6h-3V0h-2v8h-4V2h-1v6h-4V2h-1v6h-4V2
			h-1v6h-4V2h-1v6h-3V0h-2v8h-4V2h-1v6h-4V2h-1v6h-4V2h-1v6h-4V2h-1v6h-3V0h-2v8h-4V2h-1v6h-4V2h-1v6h-4V2h-1v6h-4V2h-1v6h-3V0h-2v8
			h-4V2h-1v6h-4V2h-1v6h-4V2h-1v6h-4V2h-1v6h-3V0h-2v8h-4V2h-1v6h-4V2h-1v6h-4V2h-1v6h-4V2h-1v6h-3V0h-2v8h-4V2h-1v6h-4V2h-1v6h-4V2
			h-1v6h-4V2h-1v6h-3V0h-2v8h-4V2h-1v6h-4V2h-1v6h-4V2h-1v6h-4V2h-1v6h-3V0h-2v8h-4V2h-1v6h-4V2h-1v6h-4V2h-1v6h-4V2h-1v6h-3V0h-2v8
			h-4V2h-1v6h-4V2h-1v6h-4V2h-1v6h-4V2h-1v6h-3V0h-2v8h-4V2h-1v6h-4V2h-1v6h-4V2h-1v6H6V3H5v5H2V0H0v9h1897V8h-4V2h-1v6h-4V2h-1v6h-4
			V2h-1v6h-4V2h-1v6h-3V0h-2v8h-4V2h-1v6h-4V2h-1v6h-4V2h-1v6h-4V2h-1v6h-3V0h-2v8h-4V2h-1v6h-4V2h-1v6h-4V2h-1v6h-4V2h-1v6h-3V0h-2v8
			h-4V2h-1v6h-4V2h-1v6h-4V2h-1v6h-4V2h-1v6h-3V0h-2v8h-4V2h-1v6h-4V2h-1v6h-4V2h-1v6h-4V2h-1v6h-3V0h-2v8h-4V2h-1v6h-4V2h-1v6h-4V2
			h-1v6h-4V2h-1v6h-3V0h-2v8h-4V2h-1v6h-4V2h-1v6h-4V2h-1v6h-4V2h-1v6h-3V0h-2v8h-4V2h-1v6h-4V2h-1v6h-4V2h-1v6h-4V2h-1v6h-3V0h-2v8
			h-4V2h-1v6h-4V2h-1v6h-4V2h-1v6h-4V2h-1v6h-3V0h-2v8h-4V2h-1v6h-4V2h-1v6h-4V2h-1v6h-4V2h-1v6h-3V0h-2v8h-4V2h-1v6h-4V2h-1v6h-4V2
			h-1v6h-4V2h-1v6h-3V0h-2v8h-4V2h-1v6h-4V2h-1v6h-4V2h-1v6h-4V2h-1v6h-3V0h-2v8h-4V2h-1v6h-4V2h-1v6h-4V2h-1v6h-4V2h-1v6h-3V0h-2v8
			h-4V2h-1v6h-4V2h-1v6h-4V2h-1v6h-4V2h-1v6h-3V0h-2v8h-4V2h-1v6h-4V2h-1v6h-4V2h-1v6h-4V2h-1v6h-3V0h-2v8h-4V2h-1v6h-4V2h-1v6h-4V2
			h-1v6h-4V2h-1v6h-3V0h-2v8h-4V2h-1v6h-4V2h-1v6h-4V2h-1v6h-4V2h-1v6h-3V0h-2v8h-4V2h-1v6h-4V2h-1v6h-4V2h-1v6h-4V2h-1v6h-3V0h-2v8
			h-4V2h-1v6h-4V2h-1v6h-4V2h-1v6h-4V3h-1v5h-3V0h-2v8h-3V2h-1v6h-4V2h-1v6h-4V2h-1v6h-4V2h-1v6h-3V0h-2v8h-4V2h-1v6h-4V2h-1v6h-4V2
			h-1v6h-4V2h-1v6h-3V0h-2v8h-4V2h-1v6h-4V2h-1v6h-4V2h-1v6h-4V2h-1v6h-3V0h-2v8h-4V2h-1v6h-4V2h-1v6h-4V2h-1v6h-4V2h-1v6h-3V0h-2v8
			h-4V2h-1v6h-4V2h-1v6h-4V2h-1v6h-4V2h-1v6h-3V0h-2v8h-4V2h-1v6h-4V2h-1v6h-4V2h-1v6h-4V2h-1v6h-3V0h-2v8h-4V2h-1v6h-4V2h-1v6h-4V2
			h-1v6h-4V2h-1v6h-3V0h-2v8h-4V2h-1v6h-4V2h-1v6h-4V2h-1v6h-4V2h-1v6h-3V0h-2v8h-4V2h-1v6h-4V2h-1v6h-4V2h-1v6h-4V2h-1v6h-3V0h-2v8
			h-4V2h-1v6h-4V2h-1v6h-4V2h-1v6h-4V2h-1v6h-3V0h-2v8h-4V2h-1v6h-4V2h-1v6h-4V2h-1v6h-4V2h-1v6h-3V0h-2v8h-4V2h-1v6h-4V2h-1v6h-4V2
			h-1v6h-4V2h-1v6h-3V0h-2v8h-4V2h-1v6h-4V2h-1v6h-4V2h-1v6h-4V2h-1v6h-3V0h-2v8h-4V2h-1v6h-4V2h-1v6h-4V2h-1v6h-4V2h-1v6h-3V0h-2v8
			h-4V2h-1v6h-4V2h-1v6h-4V2h-1v6h-4V2h-1v6h-3V0h-2v8h-4V2h-1v6h-4V2h-1v6h-4V2h-1v6h-4V2h-1v6h-3V0h-2v8h-4V2h-1v6h-4V2h-1v6h-4V2
			h-1v6h-4V2h-1v6h-3V0h-2v8h-4V2h-1v6h-4V2h-1v6h-4V2h-1v6h-4V2h-1v6h-3V0h-2v8h-4V2h-1v6h-4V2h-1v6h-4V2h-1v6h-4V3h-1v5h-3V0z"/>
		</symbol>
</svg>
