<?xml version="1.0" encoding="utf-8"?>
<!-- Generator: Adobe Illustrator 16.0.0, SVG Export Plug-In . SVG Version: 6.00 Build 0)  -->
<!DOCTYPE svg PUBLIC "-//W3C//DTD SVG 1.1 Tiny//EN" "http://www.w3.org/Graphics/SVG/1.1/DTD/svg11-tiny.dtd">
<svg version="1.1" baseProfile="tiny" id="Calque_1"
	 xmlns="http://www.w3.org/2000/svg" xmlns:xlink="http://www.w3.org/1999/xlink" x="0px" y="0px" width="1897px" height="9px"
	 viewBox="0 0 1897 9" xml:space="preserve">
<path fill="#010202" d="M950,0h-2v8h-3V2h-1v6h-4V2h-1v6h-4V2h-1v6h-4V2h-1v6h-3V0h-2v8h-4V2h-1v6h-4V2h-1v6h-4V2h-1v6h-4V2h-1v6h-3
	V0h-2v8h-4V2h-1v6h-4V2h-1v6h-4V2h-1v6h-4V2h-1v6h-3V0h-2v8h-4V2h-1v6h-4V2h-1v6h-4V2h-1v6h-4V2h-1v6h-3V0h-2v8h-4V2h-1v6h-4V2h-1v6
	h-4V2h-1v6h-4V2h-1v6h-3V0h-2v8h-4V2h-1v6h-4V2h-1v6h-4V2h-1v6h-4V2h-1v6h-3V0h-2v8h-4V2h-1v6h-4V2h-1v6h-4V2h-1v6h-4V2h-1v6h-3V0
	h-2v8h-4V2h-1v6h-4V2h-1v6h-4V2h-1v6h-4V2h-1v6h-3V0h-2v8h-4V2h-1v6h-4V2h-1v6h-4V2h-1v6h-4V2h-1v6h-3V0h-2v8h-4V2h-1v6h-4V2h-1v6
	h-4V2h-1v6h-4V2h-1v6h-3V0h-2v8h-4V2h-1v6h-4V2h-1v6h-4V2h-1v6h-4V2h-1v6h-3V0h-2v8h-4V2h-1v6h-4V2h-1v6h-4V2h-1v6h-4V2h-1v6h-3V0
	h-2v8h-4V2h-1v6h-4V2h-1v6h-4V2h-1v6h-4V2h-1v6h-3V0h-2v8h-4V2h-1v6h-4V2h-1v6h-4V2h-1v6h-4V2h-1v6h-3V0h-2v8h-4V2h-1v6h-4V2h-1v6
	h-4V2h-1v6h-4V2h-1v6h-3V0h-2v8h-4V2h-1v6h-4V2h-1v6h-4V2h-1v6h-4V2h-1v6h-3V0h-2v8h-4V2h-1v6h-4V2h-1v6h-4V2h-1v6h-4V2h-1v6h-3V0
	h-2v8h-4V2h-1v6h-4V2h-1v6h-4V2h-1v6h-4V2h-1v6h-3V0h-2v8h-4V2h-1v6h-4V2h-1v6h-4V2h-1v6h-4V3h-1v5h-3V0h-2v8h-3V2h-1v6h-4V2h-1v6
	h-4V2h-1v6h-4V2h-1v6h-3V0h-2v8h-4V2h-1v6h-4V2h-1v6h-4V2h-1v6h-4V2h-1v6h-3V0h-2v8h-4V2h-1v6h-4V2h-1v6h-4V2h-1v6h-4V2h-1v6h-3V0
	h-2v8h-4V2h-1v6h-4V2h-1v6h-4V2h-1v6h-4V2h-1v6h-3V0h-2v8h-4V2h-1v6h-4V2h-1v6h-4V2h-1v6h-4V2h-1v6h-3V0h-2v8h-4V2h-1v6h-4V2h-1v6
	h-4V2h-1v6h-4V2h-1v6h-3V0h-2v8h-4V2h-1v6h-4V2h-1v6h-4V2h-1v6h-4V2h-1v6h-3V0h-2v8h-4V2h-1v6h-4V2h-1v6h-4V2h-1v6h-4V2h-1v6h-3V0
	h-2v8h-4V2h-1v6h-4V2h-1v6h-4V2h-1v6h-4V2h-1v6h-3V0h-2v8h-4V2h-1v6h-4V2h-1v6h-4V2h-1v6h-4V2h-1v6h-3V0h-2v8h-4V2h-1v6h-4V2h-1v6
	h-4V2h-1v6h-4V2h-1v6h-3V0h-2v8h-4V2h-1v6h-4V2h-1v6h-4V2h-1v6h-4V2h-1v6h-3V0h-2v8h-4V2h-1v6h-4V2h-1v6h-4V2h-1v6h-4V2h-1v6h-3V0
	h-2v8h-4V2h-1v6h-4V2h-1v6h-4V2h-1v6h-4V2h-1v6h-3V0h-2v8h-4V2h-1v6h-4V2h-1v6h-4V2h-1v6h-4V2h-1v6h-3V0h-2v8h-4V2h-1v6h-4V2h-1v6
	h-4V2h-1v6h-4V2h-1v6h-3V0h-2v8h-4V2h-1v6h-4V2h-1v6h-4V2h-1v6h-4V2h-1v6h-3V0h-2v8h-4V2h-1v6h-4V2h-1v6h-4V2h-1v6h-4V2h-1v6h-3V0
	h-2v8h-4V2h-1v6h-4V2h-1v6h-4V2h-1v6H6V3H5v5H2V0H0v9h1897V8h-4V2h-1v6h-4V2h-1v6h-4V2h-1v6h-4V2h-1v6h-3V0h-2v8h-4V2h-1v6h-4V2h-1
	v6h-4V2h-1v6h-4V2h-1v6h-3V0h-2v8h-4V2h-1v6h-4V2h-1v6h-4V2h-1v6h-4V2h-1v6h-3V0h-2v8h-4V2h-1v6h-4V2h-1v6h-4V2h-1v6h-4V2h-1v6h-3V0
	h-2v8h-4V2h-1v6h-4V2h-1v6h-4V2h-1v6h-4V2h-1v6h-3V0h-2v8h-4V2h-1v6h-4V2h-1v6h-4V2h-1v6h-4V2h-1v6h-3V0h-2v8h-4V2h-1v6h-4V2h-1v6
	h-4V2h-1v6h-4V2h-1v6h-3V0h-2v8h-4V2h-1v6h-4V2h-1v6h-4V2h-1v6h-4V2h-1v6h-3V0h-2v8h-4V2h-1v6h-4V2h-1v6h-4V2h-1v6h-4V2h-1v6h-3V0
	h-2v8h-4V2h-1v6h-4V2h-1v6h-4V2h-1v6h-4V2h-1v6h-3V0h-2v8h-4V2h-1v6h-4V2h-1v6h-4V2h-1v6h-4V2h-1v6h-3V0h-2v8h-4V2h-1v6h-4V2h-1v6
	h-4V2h-1v6h-4V2h-1v6h-3V0h-2v8h-4V2h-1v6h-4V2h-1v6h-4V2h-1v6h-4V2h-1v6h-3V0h-2v8h-4V2h-1v6h-4V2h-1v6h-4V2h-1v6h-4V2h-1v6h-3V0
	h-2v8h-4V2h-1v6h-4V2h-1v6h-4V2h-1v6h-4V2h-1v6h-3V0h-2v8h-4V2h-1v6h-4V2h-1v6h-4V2h-1v6h-4V2h-1v6h-3V0h-2v8h-4V2h-1v6h-4V2h-1v6
	h-4V2h-1v6h-4V2h-1v6h-3V0h-2v8h-4V2h-1v6h-4V2h-1v6h-4V2h-1v6h-4V2h-1v6h-3V0h-2v8h-4V2h-1v6h-4V2h-1v6h-4V2h-1v6h-4V3h-1v5h-3V0
	h-2v8h-3V2h-1v6h-4V2h-1v6h-4V2h-1v6h-4V2h-1v6h-3V0h-2v8h-4V2h-1v6h-4V2h-1v6h-4V2h-1v6h-4V2h-1v6h-3V0h-2v8h-4V2h-1v6h-4V2h-1v6
	h-4V2h-1v6h-4V2h-1v6h-3V0h-2v8h-4V2h-1v6h-4V2h-1v6h-4V2h-1v6h-4V2h-1v6h-3V0h-2v8h-4V2h-1v6h-4V2h-1v6h-4V2h-1v6h-4V2h-1v6h-3V0
	h-2v8h-4V2h-1v6h-4V2h-1v6h-4V2h-1v6h-4V2h-1v6h-3V0h-2v8h-4V2h-1v6h-4V2h-1v6h-4V2h-1v6h-4V2h-1v6h-3V0h-2v8h-4V2h-1v6h-4V2h-1v6
	h-4V2h-1v6h-4V2h-1v6h-3V0h-2v8h-4V2h-1v6h-4V2h-1v6h-4V2h-1v6h-4V2h-1v6h-3V0h-2v8h-4V2h-1v6h-4V2h-1v6h-4V2h-1v6h-4V2h-1v6h-3V0
	h-2v8h-4V2h-1v6h-4V2h-1v6h-4V2h-1v6h-4V2h-1v6h-3V0h-2v8h-4V2h-1v6h-4V2h-1v6h-4V2h-1v6h-4V2h-1v6h-3V0h-2v8h-4V2h-1v6h-4V2h-1v6
	h-4V2h-1v6h-4V2h-1v6h-3V0h-2v8h-4V2h-1v6h-4V2h-1v6h-4V2h-1v6h-4V2h-1v6h-3V0h-2v8h-4V2h-1v6h-4V2h-1v6h-4V2h-1v6h-4V2h-1v6h-3V0
	h-2v8h-4V2h-1v6h-4V2h-1v6h-4V2h-1v6h-4V2h-1v6h-3V0h-2v8h-4V2h-1v6h-4V2h-1v6h-4V2h-1v6h-4V2h-1v6h-3V0h-2v8h-4V2h-1v6h-4V2h-1v6
	h-4V2h-1v6h-4V2h-1v6h-3V0h-2v8h-4V2h-1v6h-4V2h-1v6h-4V2h-1v6h-4V3h-1v5h-3V0z"/>
</svg>
